<svg xmlns="http://www.w3.org/2000/svg" viewBox="0 0 561.29 361.52">
	<path class="cls-1" d="M507.46,157.36c5.81-2.19,13.55-1.16,20.13-3.35a81.55,81.55,0,0,0,33.16-21c-1.68-8.9-2.19-13.81-1-21.29-1-.52-3.23.9-3.35-1.16-.26-5.94-3.1-8.13-5.81-13.16-20.77,3-58.58,19.23-81,17.81,13.81-9.81,23.74-20.77,24-35.23-1.16-1.16-7.74-1.94-9.29-1.42-5.29-1-10.71-5.81-13-8.77-2.19,1.42-2.58-.13-4.52.9-8.26-6.32-25.68,3.23-34.06-2.71,3.87-10.19-4-12.52-9.29-17.42,1.94-8-2.84-12.26-7.23-19.74-5.42,2.58-5-1.42-4.39-4-4,1.16-6.45-.39-8.65-2.45-7.74,3-14.84,3.1-21,3.74-31.61,3.35-70.84,11.87-99.22,13.29,26.06-11.1,56.26-18.19,75.48-27.74a54.14,54.14,0,0,0,.13-12.9c-20.77-1.81-52.64,8.13-82.19,17.42C207.72,39.68,125.15,64.2,86.31,102.39c1,5.68-.65,13,3.61,17.94C75.73,128.07,59.47,135,45.66,143c.52,6.71,4,13.68,5.42,14.84-4.52,2.45,2.45.65,2.19,3.23-1.94.9-.65,3.1-3.48,3.74-10.45-1.68-22.06,6.45-32.77,8.9-.39,1.68,3.48,1.42,1,2.84-7.1,1.68-7.87,5.42-15,7.1a12.41,12.41,0,0,0-.13,4.9c1,1.29,7.23-.26,5.55,1.94-3.74,1.29-8.13.9-8,4.52,2.06,2.32,6.32.77,7.48,4.52-.9,1.81-3.74,2.84-3,5.16,6.06-.13,11.48,1,17.81.65-1.94,1,1.55,3.35,6.71,2.32-.26,1.81-4.77,2.06-4.39,4,7.48-1.42,9.55-4.26,16.52-5.29-4.65,3.74-10.58,9.55-16.39,10.84-1.68,2.32-1,5.42-1.94,7.87-1.55-.52-1.42,7.61,2.58,9.55,5-1.29,16.39-.65,23.74.9-.52,1.42-2.19,2.45-1.29,4.52,2.45.9,8.39-4.26,10.84-2.32,3.61,1.29-2.84,2.58-1,5.16,24-12,43.23-14.19,67.61-20-27.23,11.87-64,43.87-64.64,54.32a43.63,43.63,0,0,1,9.29,1.42c-1,2.71-2.58,5.29-2.84,8.26,1.68-3,7.61-4.39,8.13,1-4.13.39-4.13,1.68-4.13,4.77,4.26.52,10.84-3.23,12.9.77-2.71,1.68-3.74.13-6.32,1.55.13,2.58,2.71.65,3.61,1.94-7.48,3.1-7.1,4.26-9.55,8.39-2.06-3.35-7.48,18.19-3.1,17.94-3.61,3.74,3.35,1.55,5,3-1.55,2.71,1.94,3.48,2.32,6.32,1.94.52,5.68-2.19,5.55,1.94-3.74.39-2.58-.65-5.16,1.94a3.18,3.18,0,0,0-4.77.13c1.42,2.71.9,4.77.65,7,6.84-1.16,2.06,1.16,8.39,1.68,1.94,2.32-.9,3-1.29,4.52,12.39.39,18.84,5.55,29.42,8,0,2.32,1.94,1.42,2.19,3.23,20.13-2.32,33.42-.13,56.64-7.23-2.84-2.58-10.84-.52-12.39-1.81,15.74-6.58,35-8.9,53.81-12.64,18.06-3.48,35.87-2.32,53.68-10.19,4.26,1.68,7.61-1.55,11.61-2.71a356.09,356.09,0,0,1,68.13-13,22.15,22.15,0,0,0,9.42-3.48c6.71,1,18.32-3.35,24.39-5-.26-1.16-1.29-2.45-.13-3.1,8.39-1.94,20.26-4,28-8.65-1-.52-3.23.9-3.35-1.16,7.35-1.81,16.39-2.58,23.35-5.42a15.65,15.65,0,0,1-4.26-.9c8.65-6.58,12.26-9.81,24.13-11.23-.9-3.87,1.81-6.32,7.87-7.74,1.68-2.32-3.48-1.42-1.55-4.26,21.55-2.84,27.48-22.19,37.42-33,.39-.39,2.06-1.42,2.32-1.68,13.68-8.26,30.58-9.42,41-20.77,4-8.65,14.58-19.61,2.84-26.71,1.29-1.81.65-4.26-.65-7-5.29,1.42-29.68-3.35-35.1-5.55,1.16-2.71-1.29-5.42-.65-7,5-.26,6.45-2.19,9.42-3.35Z"/>
</svg>